<?xml version="1.0" standalone="no"?>
<!DOCTYPE svg PUBLIC "-//W3C//DTD SVG 20010904//EN"
 "http://www.w3.org/TR/2001/REC-SVG-20010904/DTD/svg10.dtd">
<svg version="1.0" xmlns="http://www.w3.org/2000/svg"
 width="1251.000000pt" height="1251.000000pt" viewBox="0 0 1251.000000 1251.000000"
 preserveAspectRatio="xMidYMid meet">
<metadata>
Created by potrace 1.11, written by Peter Selinger 2001-2013
</metadata>
<g transform="translate(0.000000,1251.000000) scale(0.100000,-0.100000)"
fill="#000000" stroke="none">
<path d="M5 12498 c-3 -7 -4 -2821 -3 -6253 l3 -6240 6250 0 6250 0 3 6253 2
6252 -6250 0 c-4991 0 -6252 -3 -6255 -12z m3103 -4820 l-3 -2623 -257 -3
-258 -2 0 2625 0 2625 260 0 260 0 -2 -2622z m6812 -3 l0 -2625 -255 0 -255 0
0 2625 0 2625 255 0 255 0 0 -2625z m-5110 -1420 l0 -2625 -257 2 -258 3 -3
2623 -2 2622 260 0 260 0 0 -2625z m3410 0 l0 -2625 -260 0 -260 0 0 2625 0
2625 260 0 260 0 0 -2625z m-1700 -1420 l0 -2625 -260 0 -260 0 0 2625 0 2625
260 0 260 0 0 -2625z"/>
</g>
</svg>
